<svg xmlns="http://www.w3.org/2000/svg" xmlns:xlink="http://www.w3.org/1999/xlink" width="500" zoomAndPan="magnify" viewBox="0 0 375 374.999991" height="500" preserveAspectRatio="xMidYMid meet" version="1.0"><defs><filter x="0%" y="0%" width="100%" height="100%" id="9d429107bc"><feColorMatrix values="0 0 0 0 1 0 0 0 0 1 0 0 0 0 1 0 0 0 1 0" color-interpolation-filters="sRGB"/></filter><mask id="5a1473e7e8"><g filter="url(#9d429107bc)"><rect x="-37.5" width="450" fill="#000000" y="-37.499999" height="449.999989" fill-opacity="0.8"/></g></mask><clipPath id="67675a505e"><path d="M 0 1 L 331.5 1 L 331.5 255 L 0 255 Z M 0 1 " clip-rule="nonzero"/></clipPath><clipPath id="38704d19a3"><rect x="0" width="332" y="0" height="256"/></clipPath><clipPath id="73039a5cc7"><path d="M 45.914062 36 L 375 36 L 375 290.3125 L 45.914062 290.3125 Z M 45.914062 36 " clip-rule="nonzero"/></clipPath></defs><g mask="url(#5a1473e7e8)"><g transform="matrix(1, 0, 0, 1, 0, 60)"><g clip-path="url(#38704d19a3)"><g clip-path="url(#67675a505e)"><path fill="#d9d9d9" d="M 308.664062 103.894531 L 308.664062 76.097656 C 308.664062 64.527344 299.195312 55.058594 287.617188 55.058594 L 98.921875 55.058594 L 233.988281 40.328125 L 233.988281 15.835938 C 233.988281 11.011719 231.898438 6.859375 228.027344 3.984375 C 224.152344 1.105469 219.578125 0.300781 214.953125 1.695312 L 48.050781 51.894531 C 41.707031 53.800781 37.53125 59.414062 37.53125 66.035156 L 37.53125 113.652344 L 94.238281 113.652344 C 103.960938 113.652344 111.90625 121.597656 111.90625 131.308594 C 111.90625 141.023438 103.953125 148.964844 94.238281 148.964844 L 17.664062 148.964844 C 7.949219 148.96875 0 156.917969 0 166.625 C 0 176.335938 7.949219 184.28125 17.664062 184.28125 L 144.152344 184.28125 C 153.875 184.28125 161.816406 192.226562 161.816406 201.9375 C 161.816406 211.648438 153.867188 219.59375 144.152344 219.59375 L 92.703125 219.59375 C 82.980469 219.59375 75.035156 227.539062 75.035156 237.25 C 75.035156 246.964844 82.988281 254.90625 92.703125 254.90625 L 287.613281 254.90625 C 299.1875 254.90625 308.660156 245.4375 308.660156 233.867188 L 308.660156 206.070312 L 269.617188 206.070312 C 266.171875 206.070312 263.355469 203.253906 263.355469 199.808594 C 263.355469 196.367188 266.171875 193.550781 269.617188 193.550781 L 319.570312 193.550781 C 326.144531 193.550781 331.511719 188.1875 331.511719 181.617188 L 331.511719 128.347656 C 331.511719 121.777344 326.152344 116.414062 319.570312 116.414062 L 247.972656 116.414062 C 244.527344 116.414062 241.707031 113.601562 241.707031 110.15625 C 241.707031 106.710938 244.523438 103.890625 247.972656 103.890625 L 308.664062 103.890625 Z M 246.066406 144.035156 C 240.011719 144.035156 235.101562 148.941406 235.101562 154.992188 C 235.101562 161.042969 240.011719 165.949219 246.066406 165.949219 C 252.121094 165.949219 257.03125 161.042969 257.03125 154.992188 C 257.03125 148.933594 252.121094 144.035156 246.066406 144.035156 Z M 220.003906 154.984375 C 220.003906 140.660156 231.730469 128.9375 246.066406 128.9375 L 318.988281 128.9375 L 318.988281 181.035156 L 246.066406 181.035156 C 231.738281 181.035156 220.003906 169.3125 220.003906 154.984375 Z M 220.003906 154.984375 " fill-opacity="1" fill-rule="evenodd"/></g></g></g></g><g clip-path="url(#73039a5cc7)"><path fill="#0096fe" d="M 354.578125 139.140625 L 354.578125 111.34375 C 354.578125 99.773438 345.105469 90.304688 333.53125 90.304688 L 144.835938 90.304688 L 279.898438 75.574219 L 279.898438 51.082031 C 279.898438 46.257812 277.8125 42.105469 273.9375 39.226562 C 270.0625 36.351562 265.488281 35.546875 260.863281 36.941406 L 93.964844 87.140625 C 87.621094 89.046875 83.445312 94.65625 83.445312 101.28125 L 83.445312 148.898438 L 140.152344 148.898438 C 149.871094 148.898438 157.816406 156.84375 157.816406 166.554688 C 157.816406 176.269531 149.867188 184.210938 140.152344 184.210938 L 63.578125 184.210938 C 53.863281 184.214844 45.914062 192.160156 45.914062 201.871094 C 45.914062 211.582031 53.863281 219.527344 63.578125 219.527344 L 190.066406 219.527344 C 199.785156 219.527344 207.730469 227.472656 207.730469 237.183594 C 207.730469 246.890625 199.78125 254.839844 190.066406 254.839844 L 138.613281 254.839844 C 128.894531 254.839844 120.949219 262.785156 120.949219 272.496094 C 120.949219 282.210938 128.898438 290.152344 138.613281 290.152344 L 333.523438 290.152344 C 345.101562 290.152344 354.570312 280.683594 354.570312 269.113281 L 354.570312 241.316406 L 315.53125 241.316406 C 312.082031 241.316406 309.269531 238.5 309.269531 235.054688 C 309.269531 231.613281 312.082031 228.796875 315.53125 228.796875 L 365.484375 228.796875 C 372.058594 228.796875 377.425781 223.433594 377.425781 216.863281 L 377.425781 163.59375 C 377.425781 157.023438 372.0625 151.660156 365.484375 151.660156 L 293.886719 151.660156 C 290.441406 151.660156 287.617188 148.84375 287.617188 145.402344 C 287.617188 141.957031 290.433594 139.136719 293.886719 139.136719 L 354.578125 139.136719 Z M 291.980469 179.28125 C 285.925781 179.28125 281.015625 184.1875 281.015625 190.238281 C 281.015625 196.289062 285.925781 201.195312 291.980469 201.195312 C 298.03125 201.195312 302.941406 196.289062 302.941406 190.238281 C 302.941406 184.179688 298.03125 179.28125 291.980469 179.28125 Z M 265.917969 190.230469 C 265.917969 175.90625 277.644531 164.183594 291.980469 164.183594 L 364.898438 164.183594 L 364.898438 216.277344 L 291.980469 216.277344 C 277.648438 216.277344 265.917969 204.558594 265.917969 190.230469 Z M 265.917969 190.230469 " fill-opacity="1" fill-rule="evenodd"/></g></svg>